<?xml version="1.0" encoding="UTF-8" standalone="no"?>
<!DOCTYPE svg PUBLIC "-//W3C//DTD SVG 1.1//EN" "http://www.w3.org/Graphics/SVG/1.1/DTD/svg11.dtd">
<svg width="100%" height="100%" viewBox="0 0 1400 700" version="1.1" xmlns="http://www.w3.org/2000/svg" xmlns:xlink="http://www.w3.org/1999/xlink" xml:space="preserve" xmlns:serif="http://www.serif.com/" style="fill-rule:evenodd;clip-rule:evenodd;stroke-linecap:round;stroke-linejoin:round;stroke-miterlimit:1.5;">
    <g id="Ebene2">
    </g>
    <g id="Ebene10">
        <path d="M565.619,150.923C577.713,187.203 572.666,230.597 572.666,268.372C572.666,343.137 568.841,423.303 575.015,497.399C576.052,509.843 574.058,522.532 575.015,534.983C576.13,549.476 578.539,563.945 578.539,578.44C578.539,580.786 579.399,604.279 580.888,604.279" style="fill:none;stroke:black;stroke-width:5px;"/>
        <path d="M853.371,201.426C836.095,206.362 824.791,219.827 811.089,230.789C793.438,244.91 769.933,256.575 750.015,267.198C704.131,291.67 650.087,322.496 616.123,356.46C610.428,362.155 598.837,369.49 591.458,372.903C584.993,375.893 578.305,386.056 575.015,389.346C573.903,390.458 595.709,404.398 610.25,414.01C618.721,419.609 621.452,426.296 629.042,432.802C638.074,440.544 647.858,447.105 657.23,453.943C702.91,487.27 755.427,522.532 799.344,551.426C819.036,564.382 832.814,586.07 846.324,599.581" style="fill:none;stroke:black;stroke-width:5px;"/>
    </g>
</svg>
