<?xml version="1.0" encoding="UTF-8" standalone="no"?>
<!DOCTYPE svg PUBLIC "-//W3C//DTD SVG 1.1//EN" "http://www.w3.org/Graphics/SVG/1.1/DTD/svg11.dtd">
<svg width="100%" height="100%" viewBox="0 0 1400 700" version="1.1" xmlns="http://www.w3.org/2000/svg" xmlns:xlink="http://www.w3.org/1999/xlink" xml:space="preserve" xmlns:serif="http://www.serif.com/" style="fill-rule:evenodd;clip-rule:evenodd;stroke-linecap:round;stroke-linejoin:round;stroke-miterlimit:1.5;">
    <g id="Ebene1" transform="matrix(1.34841,0,0,1.34841,-74.1462,-121.819)">
        <path d="M445.418,556.124C453.022,516.199 484.615,456.681 501.793,418.708C522.175,373.654 539.361,327.587 559.344,282.466C573.352,250.837 588.757,219.202 599.277,186.158C602.147,177.14 603.766,164.786 609.759,157.294C612.576,153.773 614.189,149.831 616.894,146.225C617.419,145.524 618.069,143 618.069,143.876C618.069,165.124 614.369,186.569 614.369,207.299C614.369,270.046 614.165,332.764 618.069,395.218C619.291,414.784 614.655,470.605 622.767,486.829C627.171,495.638 623.189,507.641 627.465,516.191C629.162,519.585 633.046,530.285 632.163,530.285" style="fill:none;stroke:black;stroke-width:3.71px;"/>
        <path d="M511.189,357.634C531.216,356.094 559.242,354.749 576.961,345.889C587.907,340.416 655.675,338.842 668.572,338.842" style="fill:none;stroke:black;stroke-width:3.71px;"/>
    </g>
    <g id="Ebene2">
    </g>
</svg>
