<?xml version="1.0" encoding="UTF-8" standalone="no"?>
<!DOCTYPE svg PUBLIC "-//W3C//DTD SVG 1.1//EN" "http://www.w3.org/Graphics/SVG/1.1/DTD/svg11.dtd">
<svg width="100%" height="100%" viewBox="0 0 1400 700" version="1.1" xmlns="http://www.w3.org/2000/svg" xmlns:xlink="http://www.w3.org/1999/xlink" xml:space="preserve" xmlns:serif="http://www.serif.com/" style="fill-rule:evenodd;clip-rule:evenodd;stroke-linecap:round;stroke-linejoin:round;stroke-miterlimit:1.5;">
    <g id="Ebene4">
        <path d="M551.526,119.211C558.27,132.699 558.61,147.887 559.747,162.668C561.163,181.078 564.811,199.968 567.968,217.869C571.601,238.466 569.143,261.497 569.143,282.466C569.143,298.803 572.218,315.567 573.841,331.795C575.341,346.795 572.057,362.809 575.015,377.601C578.362,394.332 580.796,419.169 577.364,436.326C568.028,483.007 562.096,526.648 562.096,576.091" style="fill:none;stroke:black;stroke-width:5px;"/>
        <path d="M443.472,215.52C445.087,204.171 452.802,195.408 458.74,186.158C469.435,169.5 476.61,145.765 490.857,131.517C529.239,93.135 595.666,74.1 645.485,99.245C659.435,106.286 680.453,114.152 690.116,127.433C717.798,165.479 714.296,264.791 668.975,289.513C661.041,293.842 653.956,301.721 645.485,305.956C633.207,312.095 617.33,314.019 604.378,318.876C596.762,321.732 589.732,324.541 582.062,327.097C581.246,327.369 570.632,329.017 571.492,329.446C580.235,333.818 596.581,328.743 606.727,331.795C636.409,340.725 651.673,356.533 674.848,377.601C682.766,384.799 692.063,391.051 698.338,399.916C710.889,417.649 718.67,437.043 726.526,457.466C732.419,472.789 735.918,485.602 737.096,502.097C737.555,508.52 741.225,524.809 738.27,531.46C732.888,543.577 727.805,561.944 715.955,570.218C671.201,601.468 577.264,584.687 525.687,576.091C507.394,573.042 488.905,567.823 470.485,565.52C463.998,564.709 455.268,566.133 449.344,563.171" style="fill:none;stroke:black;stroke-width:5px;"/>
    </g>
    <g id="Ebene2">
    </g>
</svg>
