<?xml version="1.0" encoding="UTF-8" standalone="no"?>
<!DOCTYPE svg PUBLIC "-//W3C//DTD SVG 1.1//EN" "http://www.w3.org/Graphics/SVG/1.1/DTD/svg11.dtd">
<svg width="100%" height="100%" viewBox="0 0 1400 700" version="1.1" xmlns="http://www.w3.org/2000/svg" xmlns:xlink="http://www.w3.org/1999/xlink" xml:space="preserve" xmlns:serif="http://www.serif.com/" style="fill-rule:evenodd;clip-rule:evenodd;stroke-linecap:round;stroke-linejoin:round;stroke-miterlimit:1.5;">
    <g id="Ebene2">
    </g>
    <g id="Ebene3">
        <path d="M875.687,135.654C870.719,105.847 846.686,90.278 820.485,80.453C772.708,62.537 723.688,50.492 674.848,73.406C654.018,83.179 632.971,88.043 611.425,95.721C586.945,104.446 522.148,150.468 508.069,170.889C490.505,196.366 480.942,225.687 469.311,254.279C459.306,278.871 456.391,301.42 456.391,328.272C456.391,353.446 454.116,378.178 461.089,402.265C464.607,414.415 472.29,426.236 477.532,437.5C521.473,531.91 606.841,573.742 710.083,573.742C751.312,573.742 794.991,572.343 826.358,542.03C844.19,524.797 877.234,463.395 885.083,439.849C887.699,431.999 892.404,401.99 895.653,398.742C896.729,397.665 895.653,390.595 895.653,389.346C895.653,369.767 888.186,372.903 868.64,372.903C827.295,372.903 786.919,381.124 744.143,381.124C734.942,381.124 695.989,384.215 695.989,385.822" style="fill:none;stroke:black;stroke-width:5px;"/>
    </g>
</svg>
