<?xml version="1.0" encoding="UTF-8" standalone="no"?>
<!DOCTYPE svg PUBLIC "-//W3C//DTD SVG 1.1//EN" "http://www.w3.org/Graphics/SVG/1.1/DTD/svg11.dtd">
<svg width="100%" height="100%" viewBox="0 0 1400 700" version="1.1" xmlns="http://www.w3.org/2000/svg" xmlns:xlink="http://www.w3.org/1999/xlink" xml:space="preserve" xmlns:serif="http://www.serif.com/" style="fill-rule:evenodd;clip-rule:evenodd;stroke-linecap:round;stroke-linejoin:round;stroke-miterlimit:1.5;">
    <g id="Ebene2">
    </g>
    <g id="Ebene5">
        <path d="M878.036,116.862C862.852,114.332 848.555,106.801 833.405,105.117C792.705,100.595 750.1,96.445 708.908,101.594C654.604,108.382 590.329,150.56 583.237,207.299C582.109,216.319 579.722,228.838 582.062,237.836C586.427,254.612 598.589,271.575 607.901,284.815C626.371,311.076 693.934,320.344 723.002,323.574C807.521,332.965 874.445,335.198 903.875,428.104C918.801,475.224 894.865,524.268 847.499,542.03C838.535,545.392 827.89,546.439 819.311,550.252C802.244,557.837 783.027,564.593 764.109,566.695C752.844,567.946 741.324,566.616 730.049,567.869C714.892,569.553 696.93,571.21 681.895,567.869C636.705,557.827 605.767,540.386 566.794,522.064C560.668,519.184 533.795,496.225 530.385,496.225" style="fill:none;stroke:black;stroke-width:5px;"/>
    </g>
</svg>
