<?xml version="1.0" encoding="UTF-8" standalone="no"?>
<!DOCTYPE svg PUBLIC "-//W3C//DTD SVG 1.1//EN" "http://www.w3.org/Graphics/SVG/1.1/DTD/svg11.dtd">
<svg width="100%" height="100%" viewBox="0 0 1400 700" version="1.1" xmlns="http://www.w3.org/2000/svg" xmlns:xlink="http://www.w3.org/1999/xlink" xml:space="preserve" xmlns:serif="http://www.serif.com/" style="fill-rule:evenodd;clip-rule:evenodd;stroke-linecap:round;stroke-linejoin:round;stroke-miterlimit:1.5;">
    <g id="Ebene2">
    </g>
    <g id="Ebene6">
        <path d="M523.338,155.621C523.338,176.495 525.224,198.295 523.338,219.044C521.336,241.065 517.69,271.094 522.163,293.037C524.123,302.649 527.121,312.335 528.036,322.399C529.399,337.399 529.433,352.145 531.559,367.03C532.6,374.315 537.159,380.442 539.781,386.997C541.686,391.759 541.05,398.179 543.304,403.44C556.824,434.985 568.301,455.589 600.854,470.386C618.966,478.618 632.515,483.305 652.532,483.305C666.692,483.305 683.015,487.31 697.163,484.48C719.877,479.937 736.259,458.475 751.19,441.023C766.932,422.624 783.897,405.235 796.995,383.473C812.618,357.516 824.882,312.734 834.579,283.641C842.249,260.63 842.801,235.471 842.801,210.822L842.801,173.238C842.801,196.736 836.146,219.832 839.277,244.883C845.823,297.247 845.15,350.136 845.15,403.44C845.15,429.004 845.376,483.532 862.767,500.923" style="fill:none;stroke:black;stroke-width:5px;"/>
    </g>
</svg>
