<?xml version="1.0" encoding="UTF-8" standalone="no"?>
<!DOCTYPE svg PUBLIC "-//W3C//DTD SVG 1.1//EN" "http://www.w3.org/Graphics/SVG/1.1/DTD/svg11.dtd">
<svg width="100%" height="100%" viewBox="0 0 1400 700" version="1.1" xmlns="http://www.w3.org/2000/svg" xmlns:xlink="http://www.w3.org/1999/xlink" xml:space="preserve" xmlns:serif="http://www.serif.com/" style="fill-rule:evenodd;clip-rule:evenodd;stroke-linecap:round;stroke-linejoin:round;stroke-miterlimit:1.5;">
    <g id="Ebene2">
    </g>
    <g id="Ebene7">
        <path d="M546.828,122.735C546.828,142.137 548.782,163.428 551.526,182.634C555.649,211.5 552.555,243.876 552.555,273.096C552.555,278.744 555.218,283.608 555.218,289.319C555.218,337.54 551.497,387.939 557.398,435.151C559.393,451.108 556.878,510.183 550.351,523.238C546.81,530.319 550.351,569.525 550.351,580.789" style="fill:none;stroke:black;stroke-width:5px;"/>
        <path d="M525.687,129.782C563.398,119.007 593.669,134.989 629.042,145.05C666.909,155.821 703.561,174.496 733.572,200.252C739.967,205.739 762.257,220.092 766.485,226.433C793.894,267.548 800.796,310.564 811.089,357.634C818.871,393.216 824.233,435.337 811.089,470.386C794.962,513.392 766.2,534.662 724.177,547.903C707.862,553.043 691.598,563.344 674.848,566.695C661.949,569.274 648.822,568.846 636.089,571.393C627.993,573.012 623.027,577.888 616.123,579.614C592.295,585.571 566.828,585.487 542.13,585.487L508.069,585.487C508.069,585.487 511.529,586.598 512.767,587.836" style="fill:none;stroke:black;stroke-width:5px;"/>
    </g>
</svg>
