<?xml version="1.0" encoding="UTF-8" standalone="no"?>
<!DOCTYPE svg PUBLIC "-//W3C//DTD SVG 1.1//EN" "http://www.w3.org/Graphics/SVG/1.1/DTD/svg11.dtd">
<svg width="100%" height="100%" viewBox="0 0 1400 700" version="1.1" xmlns="http://www.w3.org/2000/svg" xmlns:xlink="http://www.w3.org/1999/xlink" xml:space="preserve" xmlns:serif="http://www.serif.com/" style="fill-rule:evenodd;clip-rule:evenodd;stroke-linecap:round;stroke-linejoin:round;stroke-miterlimit:1.5;">
    <g id="Ebene2">
    </g>
    <g id="Ebene8">
        <path d="M553.875,112.164C553.875,189.382 560.847,265.43 570.317,341.191C574.04,370.973 571.295,401.866 575.015,431.628C577.431,450.954 582.147,504.109 577.364,523.238C574.955,532.876 579.334,546.313 575.015,554.95C573.103,558.775 571.882,589.01 577.364,589.01" style="fill:none;stroke:black;stroke-width:5px;"/>
        <path d="M556.224,116.862C634.426,116.862 711.761,118.037 789.948,118.037" style="fill:none;stroke:black;stroke-width:5px;"/>
        <path d="M570.317,334.144C586.424,334.144 641.322,341.796 653.707,337.668C665.25,333.82 706.694,328.272 719.479,328.272L788.774,328.272C790.163,328.272 797.35,329.446 793.472,329.446" style="fill:none;stroke:black;stroke-width:5px;"/>
    </g>
</svg>
