<?xml version="1.0" encoding="UTF-8" standalone="no"?>
<!DOCTYPE svg PUBLIC "-//W3C//DTD SVG 1.1//EN" "http://www.w3.org/Graphics/SVG/1.1/DTD/svg11.dtd">
<svg width="100%" height="100%" viewBox="0 0 1400 700" version="1.1" xmlns="http://www.w3.org/2000/svg" xmlns:xlink="http://www.w3.org/1999/xlink" xml:space="preserve" xmlns:serif="http://www.serif.com/" style="fill-rule:evenodd;clip-rule:evenodd;stroke-linecap:round;stroke-linejoin:round;stroke-miterlimit:1.5;">
    <g id="Ebene2">
    </g>
    <g id="Ebene9">
        <path d="M503.371,129.782C503.371,185.725 497.013,242.777 501.022,298.909C502.886,325 505.557,350.855 505.557,376.988C505.557,381.087 508.2,384.109 508.2,388.126C508.2,455.487 504.546,523.51 504.546,590.185" style="fill:none;stroke:black;stroke-width:5px;"/>
        <path d="M793.472,122.735C793.472,155.369 789.407,186.501 787.599,219.044C785.141,263.294 785.671,307.441 782.901,351.762C782.17,363.459 778.751,374.477 777.029,385.822C774.387,403.224 777.789,421.263 775.854,438.674C770.225,489.341 769.982,541.438 769.982,592.534" style="fill:none;stroke:black;stroke-width:5px;"/>
        <path d="M488.103,344.715C598.41,344.715 709.52,345.889 819.311,345.889" style="fill:none;stroke:black;stroke-width:5px;"/>
    </g>
</svg>
